{
  "accessors": [
    {
      "bufferView": 2,
      "componentType": 5126,
      "count": 18618,
      "max": [
        37.589302062988281,
        27.409955978393555,
        30.430984497070312
      ],
      "min": [
        -30.553592681884766,
        0.44052028656005859,
        -37.711788177490234
      ],
      "type": "VEC3"
    },
    {
      "bufferView": 2,
      "byteOffset": 223416,
      "componentType": 5126,
      "count": 18618,
      "max": [
        0.99995553493499756,
        0.9999997615814209,
        0.99995553493499756
      ],
      "min": [
        -0.99995553493499756,
        -1,
        -0.99995547533035278
      ],
      "type": "VEC3"
    },
    {
      "bufferView": 3,
      "componentType": 5126,
      "count": 18618,
      "max": [
        0.99997508525848389,
        0.92097723484039307,
        0.99997520446777344,
        -1
      ],
      "min": [
        -0.99997514486312866,
        -0.92097806930541992,
        -0.99997508525848389,
        -1
      ],
      "type": "VEC4"
    },
    {
      "bufferView": 1,
      "componentType": 5126,
      "count": 18618,
      "max": [
        0.92557400465011597,
        0.92557322978973389
      ],
      "min": [
        0.074425995349884033,
        0.074426829814910889
      ],
      "type": "VEC2"
    },
    {
      "bufferView": 0,
      "componentType": 5125,
      "count": 104700,
      "max": [
        18617
      ],
      "min": [
        0
      ],
      "type": "SCALAR"
    },
    {
      "bufferView": 2,
      "byteOffset": 446832,
      "componentType": 5126,
      "count": 1089,
      "max": [
        28.939104080200195,
        25.399593353271484,
        21.553318023681641
      ],
      "min": [
        -21.703395843505859,
        21.6568603515625,
        -28.856409072875977
      ],
      "type": "VEC3"
    },
    {
      "bufferView": 2,
      "byteOffset": 459900,
      "componentType": 5126,
      "count": 1089,
      "max": [
        0.59016317129135132,
        1,
        0.60301446914672852
      ],
      "min": [
        -0.65971410274505615,
        0.73699319362640381,
        -0.53889137506484985
      ],
      "type": "VEC3"
    },
    {
      "bufferView": 3,
      "byteOffset": 297888,
      "componentType": 5126,
      "count": 1089,
      "max": [
        0.93042266368865967,
        0.62925219535827637,
        -0.29389259219169617,
        1
      ],
      "min": [
        0.71949201822280884,
        -0.588981032371521,
        -0.40346279740333557,
        1
      ],
      "type": "VEC4"
    },
    {
      "bufferView": 1,
      "byteOffset": 148944,
      "componentType": 5126,
      "count": 1089,
      "max": [
        1.0519909858703613,
        1.0446968078613281
      ],
      "min": [
        -0.051990926265716553,
        -0.044696807861328125
      ],
      "type": "VEC2"
    },
    {
      "bufferView": 0,
      "byteOffset": 418800,
      "componentType": 5125,
      "count": 6144,
      "max": [
        1088
      ],
      "min": [
        0
      ],
      "type": "SCALAR"
    },
    {
      "bufferView": 2,
      "byteOffset": 472968,
      "componentType": 5126,
      "count": 594,
      "max": [
        86.874656677246094,
        73.039016723632812,
        94.615280151367188
      ],
      "min": [
        -76.048629760742188,
        17.433902740478516,
        -99.14654541015625
      ],
      "type": "VEC3"
    },
    {
      "bufferView": 2,
      "byteOffset": 480096,
      "componentType": 5126,
      "count": 594,
      "max": [
        0.81056386232376099,
        0.99988359212875366,
        0.91956400871276855
      ],
      "min": [
        -0.89119166135787964,
        0.27801558375358582,
        -0.94378048181533813
      ],
      "type": "VEC3"
    },
    {
      "bufferView": 3,
      "byteOffset": 315312,
      "componentType": 5126,
      "count": 594,
      "max": [
        0.90721505880355835,
        0.94264167547225952,
        0.97636222839355469,
        1
      ],
      "min": [
        -0.99913585186004639,
        -0.35805040597915649,
        -0.98733597993850708,
        1
      ],
      "type": "VEC4"
    },
    {
      "bufferView": 1,
      "byteOffset": 157656,
      "componentType": 5126,
      "count": 594,
      "max": [
        1.0000001192092896,
        1
      ],
      "min": [
        0,
        0
      ],
      "type": "VEC2"
    },
    {
      "bufferView": 0,
      "byteOffset": 443376,
      "componentType": 5125,
      "count": 2880,
      "max": [
        593
      ],
      "min": [
        0
      ],
      "type": "SCALAR"
    },
    {
      "bufferView": 2,
      "byteOffset": 487224,
      "componentType": 5126,
      "count": 2079,
      "max": [
        98.6546630859375,
        85.595428466796875,
        81.02227783203125
      ],
      "min": [
        -81.866050720214844,
        11.843870162963867,
        -89.321586608886719
      ],
      "type": "VEC3"
    },
    {
      "bufferView": 2,
      "byteOffset": 512172,
      "componentType": 5126,
      "count": 2079,
      "max": [
        0.9863618016242981,
        0.99999600648880005,
        0.97072583436965942
      ],
      "min": [
        -0.97029227018356323,
        0.13698209822177887,
        -0.96710264682769775
      ],
      "type": "VEC3"
    },
    {
      "bufferView": 3,
      "byteOffset": 324816,
      "componentType": 5126,
      "count": 2079,
      "max": [
        0.99631786346435547,
        0.98877698183059692,
        0.99967443943023682,
        1
      ],
      "min": [
        -0.95499211549758911,
        -0.69020110368728638,
        -0.97007083892822266,
        1
      ],
      "type": "VEC4"
    },
    {
      "bufferView": 1,
      "byteOffset": 162408,
      "componentType": 5126,
      "count": 2079,
      "max": [
        1.0000001192092896,
        1.1046291589736938
      ],
      "min": [
        0,
        -0.018111992627382278
      ],
      "type": "VEC2"
    },
    {
      "bufferView": 0,
      "byteOffset": 454896,
      "componentType": 5125,
      "count": 10080,
      "max": [
        2078
      ],
      "min": [
        0
      ],
      "type": "SCALAR"
    },
    {
      "bufferView": 2,
      "byteOffset": 537120,
      "componentType": 5126,
      "count": 12,
      "max": [
        35.620353698730469,
        108.52658843994141,
        25.718635559082031
      ],
      "min": [
        -29.658767700195312,
        30.937177658081055,
        -30.86810302734375
      ],
      "type": "VEC3"
    },
    {
      "bufferView": 2,
      "byteOffset": 537264,
      "componentType": 5126,
      "count": 12,
      "max": [
        -0.0016348956851288676,
        -9.0378264872015279e-09,
        0.99999868869781494
      ],
      "min": [
        -0.86684173345565796,
        -9.0378273753799476e-09,
        -0.50141525268554688
      ],
      "type": "VEC3"
    },
    {
      "bufferView": 3,
      "byteOffset": 358080,
      "componentType": 5126,
      "count": 12,
      "max": [
        0.99999868869781494,
        9.7156055478607537e-16,
        0.86684173345565796,
        1
      ],
      "min": [
        -0.50141525268554688,
        -2.6934827159519098e-16,
        0.0016348956851288676,
        1
      ],
      "type": "VEC4"
    },
    {
      "bufferView": 1,
      "byteOffset": 179040,
      "componentType": 5126,
      "count": 12,
      "max": [
        0.9942057728767395,
        0.99846732616424561
      ],
      "min": [
        0,
        0
      ],
      "type": "VEC2"
    },
    {
      "bufferView": 0,
      "byteOffset": 495216,
      "componentType": 5125,
      "count": 18,
      "max": [
        11
      ],
      "min": [
        0
      ],
      "type": "SCALAR"
    }
  ],
  "asset": {
    "generator": "Sketchfab (OSG glTF plugin)",
    "version": "2.0"
  },
  "bufferViews": [
    {
      "buffer": 0,
      "byteLength": 495288,
      "byteOffset": 0,
      "name": "floatBufferViews",
      "target": 34963
    },
    {
      "buffer": 0,
      "byteLength": 179136,
      "byteOffset": 495288,
      "byteStride": 8,
      "name": "floatBufferViews",
      "target": 34962
    },
    {
      "buffer": 0,
      "byteLength": 537408,
      "byteOffset": 674424,
      "byteStride": 12,
      "name": "floatBufferViews",
      "target": 34962
    },
    {
      "buffer": 0,
      "byteLength": 358272,
      "byteOffset": 1211832,
      "byteStride": 16,
      "name": "floatBufferViews",
      "target": 34962
    }
  ],
  "buffers": [
    {
      "byteLength": 1570104,
      "uri": "scene.bin"
    }
  ],
  "images": [
    {
      "uri": "textures/ground_baseColor.jpg"
    },
    {
      "uri": "textures/center_baseColor.png"
    },
    {
      "uri": "textures/big_baseColor.png"
    },
    {
      "uri": "textures/big_normal.png"
    },
    {
      "uri": "textures/pot_baseColor.png"
    },
    {
      "uri": "textures/small_baseColor.png"
    },
    {
      "uri": "textures/small_normal.png"
    }
  ],
  "materials": [
    {
      "doubleSided": true,
      "name": "pot",
      "pbrMetallicRoughness": {
        "baseColorFactor": [
          1,
          1,
          1,
          1
        ],
        "baseColorTexture": {
          "index": 4,
          "texCoord": 0
        },
        "metallicFactor": 0,
        "roughnessFactor": 0.46427210369999999
      }
    },
    {
      "doubleSided": false,
      "name": "ground",
      "pbrMetallicRoughness": {
        "baseColorFactor": [
          1,
          1,
          1,
          1
        ],
        "baseColorTexture": {
          "index": 0,
          "texCoord": 0
        },
        "metallicFactor": 0,
        "roughnessFactor": 0.75085746949999999
      }
    },
    {
      "alphaCutoff": 0.68988185980000005,
      "alphaMode": "MASK",
      "doubleSided": true,
      "name": "big",
      "normalTexture": {
        "index": 3,
        "scale": 1,
        "texCoord": 0
      },
      "pbrMetallicRoughness": {
        "baseColorFactor": [
          1,
          1,
          1,
          1
        ],
        "baseColorTexture": {
          "index": 2,
          "texCoord": 0
        },
        "metallicFactor": 0,
        "roughnessFactor": 0.20817454269999999
      }
    },
    {
      "alphaCutoff": 0.64110137199999995,
      "alphaMode": "MASK",
      "doubleSided": true,
      "name": "small",
      "normalTexture": {
        "index": 6,
        "scale": 1,
        "texCoord": 0
      },
      "pbrMetallicRoughness": {
        "baseColorFactor": [
          1,
          1,
          1,
          1
        ],
        "baseColorTexture": {
          "index": 5,
          "texCoord": 0
        },
        "metallicFactor": 0,
        "roughnessFactor": 0.26915015240000001
      }
    },
    {
      "alphaCutoff": 0.38500381099999997,
      "alphaMode": "MASK",
      "doubleSided": true,
      "name": "center",
      "pbrMetallicRoughness": {
        "baseColorFactor": [
          1,
          1,
          1,
          1
        ],
        "baseColorTexture": {
          "index": 1,
          "texCoord": 0
        },
        "metallicFactor": 0,
        "roughnessFactor": 0.19597942069999999
      }
    }
  ],
  "meshes": [
    {
      "name": "Obj3d66-492498-30-285_pot_0",
      "primitives": [
        {
          "attributes": {
            "NORMAL": 1,
            "POSITION": 0,
            "TANGENT": 2,
            "TEXCOORD_0": 3
          },
          "indices": 4,
          "material": 0,
          "mode": 4
        }
      ]
    },
    {
      "name": "Obj3d66-492498-31-575_ground_0",
      "primitives": [
        {
          "attributes": {
            "NORMAL": 6,
            "POSITION": 5,
            "TANGENT": 7,
            "TEXCOORD_0": 8
          },
          "indices": 9,
          "material": 1,
          "mode": 4
        }
      ]
    },
    {
      "name": "Obj3d66-492498-17-546Shape_big_0",
      "primitives": [
        {
          "attributes": {
            "NORMAL": 11,
            "POSITION": 10,
            "TANGENT": 12,
            "TEXCOORD_0": 13
          },
          "indices": 14,
          "material": 2,
          "mode": 4
        }
      ]
    },
    {
      "name": "Obj3d66-492498-1-413Shape_small_0",
      "primitives": [
        {
          "attributes": {
            "NORMAL": 16,
            "POSITION": 15,
            "TANGENT": 17,
            "TEXCOORD_0": 18
          },
          "indices": 19,
          "material": 3,
          "mode": 4
        }
      ]
    },
    {
      "name": "Obj3d66-492498-2-840Shape2_center_0",
      "primitives": [
        {
          "attributes": {
            "NORMAL": 21,
            "POSITION": 20,
            "TANGENT": 22,
            "TEXCOORD_0": 23
          },
          "indices": 24,
          "material": 4,
          "mode": 4
        }
      ]
    }
  ],
  "nodes": [
    {
      "children": [
        1
      ],
      "name": "RootNode (gltf orientation matrix)",
      "rotation": [
        -0.70710678118654746,
        -0,
        -0,
        0.70710678118654757
      ]
    },
    {
      "children": [
        2
      ],
      "name": "RootNode (model correction matrix)"
    },
    {
      "children": [
        3
      ],
      "matrix": [
        1,
        0,
        0,
        0,
        0,
        0,
        1,
        0,
        0,
        -1,
        0,
        0,
        0,
        0,
        0,
        1
      ],
      "name": "e1d62a728d3f43e8b7837e80faf3a153.fbx"
    },
    {
      "children": [
        4
      ],
      "name": "RootNode"
    },
    {
      "children": [
        5,
        8,
        11,
        14,
        17
      ],
      "name": "foliage"
    },
    {
      "children": [
        7
      ],
      "name": "Obj3d66-492498-30-285"
    },
    {
      "mesh": 0,
      "name": "Obj3d66-492498-30-285_pot_0"
    },
    {
      "children": [
        6
      ],
      "name": "Geode"
    },
    {
      "children": [
        10
      ],
      "name": "Obj3d66-492498-31-575"
    },
    {
      "mesh": 1,
      "name": "Obj3d66-492498-31-575_ground_0"
    },
    {
      "children": [
        9
      ],
      "name": "Geode"
    },
    {
      "children": [
        13
      ],
      "name": "Obj3d66-492498-17-546Shape"
    },
    {
      "mesh": 2,
      "name": "Obj3d66-492498-17-546Shape_big_0"
    },
    {
      "children": [
        12
      ],
      "name": "Geode"
    },
    {
      "children": [
        16
      ],
      "name": "Obj3d66-492498-1-413Shape"
    },
    {
      "mesh": 3,
      "name": "Obj3d66-492498-1-413Shape_small_0"
    },
    {
      "children": [
        15
      ],
      "name": "Geode"
    },
    {
      "children": [
        19
      ],
      "name": "Obj3d66-492498-2-840Shape2"
    },
    {
      "mesh": 4,
      "name": "Obj3d66-492498-2-840Shape2_center_0"
    },
    {
      "children": [
        18
      ],
      "name": "Geode"
    }
  ],
  "samplers": [
    {
      "magFilter": 9729,
      "minFilter": 9987,
      "wrapS": 10497,
      "wrapT": 10497
    }
  ],
  "scene": 0,
  "scenes": [
    {
      "name": "OSG_Scene",
      "nodes": [
        0
      ]
    }
  ],
  "textures": [
    {
      "sampler": 0,
      "source": 0
    },
    {
      "sampler": 0,
      "source": 1
    },
    {
      "sampler": 0,
      "source": 2
    },
    {
      "sampler": 0,
      "source": 3
    },
    {
      "sampler": 0,
      "source": 4
    },
    {
      "sampler": 0,
      "source": 5
    },
    {
      "sampler": 0,
      "source": 6
    }
  ]
}

