<?xml version="1.0" encoding="UTF-8" standalone="no"?>
<!-- Created with Inkscape (http://www.inkscape.org/) -->

<svg
   width="1600"
   height="900"
   viewBox="0 0 423.33332 238.125"
   version="1.1"
   id="svg1"
   inkscape:version="1.4.2 (ebf0e940, 2025-05-08)"
   sodipodi:docname="SVG.svg"
   xmlns:inkscape="http://www.inkscape.org/namespaces/inkscape"
   xmlns:sodipodi="http://sodipodi.sourceforge.net/DTD/sodipodi-0.dtd"
   xmlns="http://www.w3.org/2000/svg"
   xmlns:svg="http://www.w3.org/2000/svg">
  <sodipodi:namedview
     id="namedview1"
     pagecolor="#ffffff"
     bordercolor="#666666"
     borderopacity="1.0"
     inkscape:showpageshadow="2"
     inkscape:pageopacity="0.0"
     inkscape:pagecheckerboard="0"
     inkscape:deskcolor="#d1d1d1"
     inkscape:document-units="mm"
     inkscape:zoom="0.61557941"
     inkscape:cx="744.01449"
     inkscape:cy="408.55818"
     inkscape:window-width="1472"
     inkscape:window-height="806"
     inkscape:window-x="0"
     inkscape:window-y="68"
     inkscape:window-maximized="0"
     inkscape:current-layer="layer1" />
  <defs
     id="defs1" />
  <g
     inkscape:label="Ebene 1"
     inkscape:groupmode="layer"
     id="layer1">
    <path
       style="font-weight:bold;font-size:19.7556px;line-height:1.25;font-family:Optima;-inkscape-font-specification:'Optima, Bold';font-variant-ligatures:none;text-align:center;text-anchor:middle;stroke-width:0.264583"
       d="m 181.97601,126.41157 q -0.49389,-0.90875 -1.12607,-2.03482 -0.63218,-1.14583 -1.22484,-2.19287 -0.59267,-1.06681 -1.06681,-1.9163 -0.47413,-0.84949 -0.67169,-1.20509 0.47414,0.0395 0.90876,0.079 0.43462,0.0198 0.889,0.0198 0.45438,0 0.86925,-0.0198 0.43462,-0.0395 0.889,-0.079 0.59267,1.20509 1.20509,2.41018 0.61243,1.2051 1.24461,2.41019 0.75071,-1.20509 1.46191,-2.41019 0.73096,-1.20509 1.4224,-2.41018 0.27658,0.0395 0.51365,0.079 0.23707,0.0198 0.49389,0.0198 0.23707,0 0.47413,-0.0198 0.25683,-0.0395 0.5334,-0.079 -0.33584,0.43462 -0.84949,1.14583 -0.49389,0.7112 -1.0668,1.54093 -0.57291,0.82974 -1.16558,1.69898 -0.57291,0.86925 -1.08656,1.60021 0.49389,0.94827 1.08656,2.05458 0.59267,1.10631 1.16558,2.15336 0.59267,1.04705 1.08656,1.95581 0.51365,0.90875 0.80998,1.4224 -0.45438,-0.0395 -0.889,-0.0395 -0.41487,0 -0.84949,0 -0.43463,0 -0.86925,0 -0.41487,0 -0.84949,0.0395 -0.63218,-1.20509 -1.26436,-2.46945 -0.63218,-1.26436 -1.32362,-2.52872 -0.80998,1.26436 -1.5607,2.52872 -0.75071,1.2446 -1.44216,2.46945 -0.45437,-0.0395 -0.96802,-0.0395 -0.23707,0 -0.49389,0 -0.23707,0 -0.51365,0.0395 0.37536,-0.47414 0.88901,-1.22485 0.51364,-0.77047 1.08655,-1.61996 0.57292,-0.84949 1.14583,-1.71873 0.59267,-0.88901 1.10631,-1.65948 z m 17.20713,7.62567 v 0.98778 h -9.8778 v -0.98778 z m 1.83727,-9.50245 q 0,-1.63971 -0.0395,-2.90407 -0.0395,-1.28411 -0.11853,-2.56823 0.33584,0.0395 0.73095,0.079 0.39512,0.0198 0.88901,0.0198 0.49389,0 0.889,-0.0198 0.39511,-0.0395 0.73096,-0.079 -0.079,1.28412 -0.11854,2.56823 -0.0395,1.26436 -0.0395,2.90407 v 2.68676 q 0,1.63972 0.0395,2.92383 0.0395,1.26436 0.11854,2.48921 -0.33585,-0.0395 -0.73096,-0.0395 -0.39511,0 -0.889,0 -0.49389,0 -0.88901,0 -0.39511,0 -0.73095,0.0395 0.079,-1.22485 0.11853,-2.48921 0.0395,-1.28411 0.0395,-2.92383 v -2.68676 z m 8.83076,-2.25214 q 0,-0.57291 -0.0198,-1.04704 0,-0.47414 -0.0395,-0.69145 -0.29633,0 -0.73095,0.0198 -0.43463,0.0198 -0.92852,0.0593 -0.49389,0.0198 -1.00753,0.079 -0.51365,0.0395 -0.94827,0.0988 0.0395,-0.21731 0.0593,-0.43462 0.0395,-0.21731 0.0395,-0.43462 0,-0.21731 -0.0395,-0.43463 -0.0198,-0.21731 -0.0593,-0.43462 0.67169,0.0198 1.20509,0.0395 0.55316,0.0198 1.10631,0.0395 0.57292,0 1.22485,0.0198 0.67169,0 1.6002,0 0.92852,0 1.58045,0 0.67169,-0.0198 1.22485,-0.0198 0.55316,-0.0198 1.0668,-0.0395 0.5334,-0.0198 1.14583,-0.0395 -0.0395,0.21731 -0.079,0.43462 -0.0198,0.21732 -0.0198,0.43463 0,0.21731 0.0198,0.43462 0.0395,0.21731 0.079,0.43462 -0.39512,-0.0593 -0.88901,-0.0988 -0.49389,-0.0593 -0.98778,-0.079 -0.47413,-0.0395 -0.90875,-0.0593 -0.43463,-0.0198 -0.73096,-0.0198 -0.0198,0.0988 -0.0395,0.27658 0,0.1778 0,0.41487 v 1.04704 4.9389 q 0,1.63972 0.0395,2.92383 0.0395,1.26436 0.11853,2.48921 -0.33584,-0.0395 -0.73095,-0.0395 -0.39512,0 -0.88901,0 -0.49389,0 -0.889,0 -0.39511,0 -0.73095,0.0395 0.079,-1.22485 0.11853,-2.48921 0.0395,-1.28411 0.0395,-2.92383 v -4.9389 z m 8.47515,2.25214 q 0,-1.63971 -0.0395,-2.90407 -0.0395,-1.28411 -0.11854,-2.56823 0.889,0.0198 1.75825,0.0593 0.86925,0.0395 1.75825,0.0395 1.46191,0 2.58798,-0.0198 1.14583,-0.0395 1.54094,-0.079 -0.079,0.31609 -0.079,0.82974 0,0.31609 0.0198,0.49389 0.0198,0.1778 0.0593,0.39511 -0.57291,-0.0395 -1.26436,-0.079 -0.67169,-0.0395 -1.32362,-0.079 -0.63218,-0.0395 -1.14583,-0.0593 -0.51364,-0.0198 -0.73096,-0.0198 -0.079,1.08656 -0.0988,2.15336 0,1.0668 0,2.15336 1.28411,-0.0198 2.3114,-0.0593 1.04705,-0.0395 2.17312,-0.0988 -0.0593,0.33584 -0.079,0.51364 -0.0198,0.1778 -0.0198,0.37536 0,0.15804 0.0198,0.33584 0.0395,0.15805 0.079,0.47414 -2.25214,-0.1778 -4.48452,-0.1778 0,0.63218 -0.0198,1.26436 0,0.63218 0,1.26436 0,1.28411 0.0593,2.46945 1.12607,0 2.25214,-0.0593 1.12606,-0.0593 2.27189,-0.19756 -0.0395,0.21731 -0.0593,0.39511 -0.0198,0.17781 -0.0198,0.49389 0,0.31609 0.0198,0.49389 0.0198,0.17781 0.0593,0.29634 -0.5334,-0.0198 -1.32363,-0.0395 -0.77046,0 -2.1336,0 -1.20509,0 -1.95581,0 -0.73095,0 -1.18533,0 -0.43462,0 -0.67169,0 -0.21731,0.0198 -0.37536,0.0395 0.079,-1.22485 0.11854,-2.48921 0.0395,-1.28411 0.0395,-2.92383 v -2.68676 z"
       id="text1"
       aria-label="X_ITE" />
    <g
       id="g1"
       transform="matrix(0.73166607,0,0,0.73166607,58.917544,19.699406)">
      <path
         sodipodi:nodetypes="cccccccc"
         inkscape:connector-curvature="0"
         id="path3113-4-8"
         d="M 125.21975,26.188642 125.043,261.5536 328.90239,144.20211 Z m 15.85433,27.533202 156.08556,90.435826 -156.22095,89.92836 z"
         style="color:#000000;font-style:normal;font-variant:normal;font-weight:normal;font-stretch:normal;font-size:medium;line-height:normal;font-family:sans-serif;font-variant-ligatures:normal;font-variant-position:normal;font-variant-caps:normal;font-variant-numeric:normal;font-variant-alternates:normal;font-feature-settings:normal;text-indent:0;text-align:start;text-decoration:none;text-decoration-line:none;text-decoration-style:solid;text-decoration-color:#000000;letter-spacing:normal;word-spacing:normal;text-transform:none;writing-mode:lr-tb;direction:ltr;text-orientation:mixed;dominant-baseline:auto;baseline-shift:baseline;text-anchor:start;white-space:normal;shape-padding:0;clip-rule:nonzero;display:inline;overflow:visible;visibility:visible;isolation:auto;mix-blend-mode:normal;color-interpolation:sRGB;color-interpolation-filters:linearRGB;solid-color:#000000;solid-opacity:1;vector-effect:none;fill:#d71f1f;fill-opacity:1;fill-rule:nonzero;stroke:none;stroke-width:15.875;stroke-linecap:butt;stroke-linejoin:miter;stroke-miterlimit:4;stroke-dasharray:none;stroke-dashoffset:0;stroke-opacity:1;color-rendering:auto;image-rendering:auto;shape-rendering:auto;text-rendering:auto;enable-background:accumulate" />
      <path
         sodipodi:nodetypes="cccccccc"
         inkscape:connector-curvature="0"
         id="path3113-4"
         d="M 146.56005,16.250231 105.51501,248.00921 326.6555,167.83994 Z M 157.39194,46.118174 295.40212,162.28421 125.93908,223.7187 Z"
         style="color:#000000;font-style:normal;font-variant:normal;font-weight:normal;font-stretch:normal;font-size:medium;line-height:normal;font-family:sans-serif;font-variant-ligatures:normal;font-variant-position:normal;font-variant-caps:normal;font-variant-numeric:normal;font-variant-alternates:normal;font-feature-settings:normal;text-indent:0;text-align:start;text-decoration:none;text-decoration-line:none;text-decoration-style:solid;text-decoration-color:#000000;letter-spacing:normal;word-spacing:normal;text-transform:none;writing-mode:lr-tb;direction:ltr;text-orientation:mixed;dominant-baseline:auto;baseline-shift:baseline;text-anchor:start;white-space:normal;shape-padding:0;clip-rule:nonzero;display:inline;overflow:visible;visibility:visible;isolation:auto;mix-blend-mode:normal;color-interpolation:sRGB;color-interpolation-filters:linearRGB;solid-color:#000000;solid-opacity:1;vector-effect:none;fill:#ff9f2e;fill-opacity:1;fill-rule:nonzero;stroke:none;stroke-width:15.875;stroke-linecap:butt;stroke-linejoin:miter;stroke-miterlimit:4;stroke-dasharray:none;stroke-dashoffset:0;stroke-opacity:1;color-rendering:auto;image-rendering:auto;shape-rendering:auto;text-rendering:auto;enable-background:accumulate" />
      <path
         sodipodi:nodetypes="cccccccc"
         inkscape:connector-curvature="0"
         id="path3113-4-8-3"
         d="M 168.98642,10.054167 88.635417,231.27896 320.27923,190.39907 Z m 5.5258,31.287418 115.9383,138.201485 -177.5126,31.32687 z"
         style="color:#000000;font-style:normal;font-variant:normal;font-weight:normal;font-stretch:normal;font-size:medium;line-height:normal;font-family:sans-serif;font-variant-ligatures:normal;font-variant-position:normal;font-variant-caps:normal;font-variant-numeric:normal;font-variant-alternates:normal;font-feature-settings:normal;text-indent:0;text-align:start;text-decoration:none;text-decoration-line:none;text-decoration-style:solid;text-decoration-color:#000000;letter-spacing:normal;word-spacing:normal;text-transform:none;writing-mode:lr-tb;direction:ltr;text-orientation:mixed;dominant-baseline:auto;baseline-shift:baseline;text-anchor:start;white-space:normal;shape-padding:0;clip-rule:nonzero;display:inline;overflow:visible;visibility:visible;isolation:auto;mix-blend-mode:normal;color-interpolation:sRGB;color-interpolation-filters:linearRGB;solid-color:#000000;solid-opacity:1;vector-effect:none;fill:#ffe32d;fill-opacity:1;fill-rule:nonzero;stroke:none;stroke-width:15.875;stroke-linecap:butt;stroke-linejoin:miter;stroke-miterlimit:4;stroke-dasharray:none;stroke-dashoffset:0;stroke-opacity:1;color-rendering:auto;image-rendering:auto;shape-rendering:auto;text-rendering:auto;enable-background:accumulate" />
    </g>
  </g>
</svg>
