<svg xmlns="http://www.w3.org/2000/svg" xmlns:svg="http://www.w3.org/2000/svg" xmlns:xlink="http://www.w3.org/1999/xlink" id="svg4244" width="1025" height="1025" version="1.1" viewBox="0 0 1025 1025"><defs id="defs4246"><linearGradient id="linearGradient5015"><stop style="stop-color:#fff;stop-opacity:1" id="stop5017" offset="0"/><stop style="stop-color:#fff;stop-opacity:0" id="stop5019" offset="1"/></linearGradient><radialGradient id="radialGradient5021" cx="137" cy="112" r="7.253" fx="137" fy="112" gradientTransform="matrix(1.3787531,3.1059176e-7,-2.795329e-7,1.2408788,-51.889138,-26.978462)" gradientUnits="userSpaceOnUse" xlink:href="#linearGradient5015"/></defs><metadata id="metadata4249"/><g id="layer1" transform="translate(0,-27.362161)"><rect style="opacity:1;fill:#fe7800;fill-opacity:1;stroke:#000;stroke-width:4;stroke-linecap:round;stroke-linejoin:round;stroke-miterlimit:4;stroke-dasharray:none;stroke-dashoffset:0;stroke-opacity:1" id="rect4794" width="22" height="22" x="76.5" y="153.862" rx="3" ry="3"/><rect id="use4836" width="21" height="21" x="127" y="129.362" rx="3" ry="3" style="opacity:1;fill:#cd0000;fill-opacity:1;stroke:#000;stroke-width:4;stroke-linecap:round;stroke-linejoin:round;stroke-miterlimit:4;stroke-dasharray:none;stroke-dashoffset:0;stroke-opacity:1"/><rect id="use4842" width="21" height="21" x="77" y="129.362" rx="3" ry="3" style="opacity:1;fill:#feb300;fill-opacity:1;stroke:#000;stroke-width:3.99999976;stroke-linecap:round;stroke-linejoin:round;stroke-miterlimit:4;stroke-dasharray:none;stroke-dashoffset:0;stroke-opacity:1"/><use id="use4863" width="100%" height="100%" x="0" y="0" transform="translate(4e-6,50.000001)" xlink:href="#use4842" style="stroke-width:4;stroke-miterlimit:4;stroke-dasharray:none;stroke:#000;stroke-opacity:1"/><rect style="opacity:1;fill:#5f007f;fill-opacity:1;stroke:#000;stroke-width:4;stroke-linecap:round;stroke-linejoin:round;stroke-miterlimit:4;stroke-dasharray:none;stroke-dashoffset:0;stroke-opacity:1" id="rect4865" width="21" height="21" x="27" y="79.362" rx="3" ry="3"/><use id="use4867" width="100%" height="100%" x="0" y="0" transform="translate(25,-1.2709961e-6)" xlink:href="#rect4865" style="stroke-width:4;stroke-miterlimit:4;stroke-dasharray:none"/><use id="use4869" width="100%" height="100%" x="0" y="0" transform="translate(50,1.2290039e-6)" xlink:href="#rect4865" style="stroke-width:4;stroke-miterlimit:4;stroke-dasharray:none"/><use id="use4871" width="100%" height="100%" x="0" y="0" transform="translate(0,24.999998)" xlink:href="#rect4865" style="stroke-width:4;stroke-miterlimit:4;stroke-dasharray:none"/><use id="use4873" width="100%" height="100%" x="0" y="0" transform="translate(0,50)" xlink:href="#rect4865" style="stroke-width:4;stroke-miterlimit:4;stroke-dasharray:none"/><use id="use4875" width="100%" height="100%" x="0" y="0" transform="translate(50,-3.7099611e-7)" xlink:href="#use4867" style="stroke-width:4;stroke-miterlimit:4;stroke-dasharray:none"/><use id="use4877" width="100%" height="100%" x="0" y="0" transform="translate(25,-3.7099611e-7)" xlink:href="#use4875" style="stroke-width:4;stroke-miterlimit:4;stroke-dasharray:none"/><use id="use4879" width="100%" height="100%" x="0" y="0" transform="translate(-100,75.000001)" xlink:href="#use4877" style="stroke-width:4;stroke-miterlimit:4;stroke-dasharray:none"/><use id="use4881" width="100%" height="100%" x="0" y="0" transform="translate(0,25)" xlink:href="#use4879" style="stroke-width:4;stroke-miterlimit:4;stroke-dasharray:none"/><rect style="opacity:1;fill:#fe3c00;fill-opacity:1;stroke:#000;stroke-width:4;stroke-linecap:round;stroke-linejoin:round;stroke-miterlimit:4;stroke-dasharray:none;stroke-dashoffset:0;stroke-opacity:1" id="use4883" width="21" height="21" x="127" y="154.362" rx="3" ry="3"/><use id="use4887" width="100%" height="100%" x="0" y="0" transform="translate(0,50.000001)" xlink:href="#use4836" style="stroke:#000;stroke-width:4;stroke-miterlimit:4;stroke-dasharray:none;stroke-opacity:1"/><rect style="opacity:1;fill:#626262;fill-opacity:0;stroke:#464646;stroke-width:3.99999976;stroke-linecap:round;stroke-linejoin:round;stroke-miterlimit:4;stroke-dasharray:none;stroke-dashoffset:0;stroke-opacity:1" id="rect4889" width="21" height="21" x="52" y="104.362" rx="3" ry="3"/><use id="use4891" width="100%" height="100%" x="0" y="0" transform="translate(0,24.999992)" xlink:href="#rect4889" style="stroke-width:4;stroke-miterlimit:4;stroke-dasharray:none"/><use id="use4893" width="100%" height="100%" x="0" y="0" transform="translate(25,-9.2709961e-6)" xlink:href="#rect4889" style="stroke-width:4;stroke-miterlimit:4;stroke-dasharray:none"/><use id="use4895" width="100%" height="100%" x="0" y="0" transform="translate(24.999992,2.9003892e-8)" xlink:href="#use4893" style="stroke-width:4;stroke-miterlimit:4;stroke-dasharray:none"/><use id="use4897" width="100%" height="100%" x="0" y="0" transform="translate(25,1.6290039e-6)" xlink:href="#use4895" style="stroke-width:4;stroke-miterlimit:4;stroke-dasharray:none"/><use id="use4899" width="100%" height="100%" x="0" y="0" transform="translate(4e-6,24.999999)" xlink:href="#use4891" style="stroke-width:4;stroke-miterlimit:4;stroke-dasharray:none"/><use id="use4901" width="100%" height="100%" x="0" y="0" transform="translate(-4e-6,25.000003)" xlink:href="#use4899" style="stroke-width:4;stroke-miterlimit:4;stroke-dasharray:none"/><use id="use4903" width="100%" height="100%" x="0" y="0" transform="translate(49.999992,-24.999998)" xlink:href="#use4901" style="stroke-width:4;stroke-miterlimit:4;stroke-dasharray:none;stroke:#000;stroke-opacity:1"/><use id="use4905" width="100%" height="100%" x="0" y="0" transform="translate(0,25.000002)" xlink:href="#use4903" style="stroke-width:4;stroke-miterlimit:4;stroke-dasharray:none;stroke:#000;stroke-opacity:1"/><use id="use4943" width="100%" height="100%" x="0" y="0" transform="translate(0,49.999992)" xlink:href="#use4883"/><use id="use4945" width="100%" height="100%" x="0" y="0" transform="translate(75,74.999994)" xlink:href="#use4842"/><use id="use4947" width="100%" height="100%" x="0" y="0" transform="translate(50,-5.3583983e-6)" xlink:href="#use4943"/><use id="use4949" width="100%" height="100%" x="0" y="0" transform="translate(50,-25.000007)" xlink:href="#use4887"/><use id="use4951" width="100%" height="100%" x="0" y="0" transform="translate(50,-25.000013)" xlink:href="#use4883"/><use id="use4953" width="100%" height="100%" x="0" y="0" transform="translate(25,25)" xlink:href="#use4951"/><use id="use4955" width="100%" height="100%" x="0" y="0" transform="translate(25.000008,7.0958449e-6)" xlink:href="#use4897"/><use id="use4957" width="100%" height="100%" x="0" y="0" transform="translate(25,1.6689301e-6)" xlink:href="#use4955"/><use id="use4959" width="100%" height="100%" x="0" y="0" transform="translate(25,0)" xlink:href="#use4957"/><use id="use4961" width="100%" height="100%" x="0" y="0" transform="translate(-1.1920926e-7,25)" xlink:href="#use4959"/><use id="use4963" width="100%" height="100%" x="0" y="0" transform="translate(-50,0)" xlink:href="#use4961"/><use id="use4965" width="100%" height="100%" x="0" y="0" transform="translate(0,25)" xlink:href="#use4963"/><use id="use4967" width="100%" height="100%" x="0" y="0" transform="translate(0,25)" xlink:href="#use4965"/><use id="use4969" width="100%" height="100%" x="0" y="0" transform="translate(25,0)" xlink:href="#use4967"/><use id="use4971" width="100%" height="100%" x="0" y="0" transform="translate(25,0)" xlink:href="#use4969"/><use id="use4973" width="100%" height="100%" x="0" y="0" transform="translate(75,24.999993)" xlink:href="#use4887"/><use id="use4975" width="100%" height="100%" x="0" y="0" transform="translate(25,1.3766357e-6)" xlink:href="#use4877"/><use id="use4977" width="100%" height="100%" x="0" y="0" transform="translate(25,0)" xlink:href="#use4975"/><use id="use4979" width="100%" height="100%" x="0" y="0" transform="translate(25,0)" xlink:href="#use4977"/><use id="use4981" width="100%" height="100%" x="0" y="0" transform="translate(-50,24.999993)" xlink:href="#use4887"/><use id="use4983" width="100%" height="100%" x="0" y="0" transform="translate(8.1192093e-6,25.000003)" xlink:href="#use4905"/><use id="use4985" width="100%" height="100%" x="0" y="0" transform="translate(1.1920929e-7,25.000007)" xlink:href="#use4901"/><use id="use4987" width="100%" height="100%" x="0" y="0" transform="translate(0,25.000002)" xlink:href="#use4881"/><use id="use4991" width="100%" height="100%" x="0" y="0" transform="translate(0,25.000004)" xlink:href="#use4895"/><path style="opacity:1;fill:url(#radialGradient5021);fill-opacity:1;stroke:none;stroke-width:3.99999976;stroke-linecap:round;stroke-linejoin:round;stroke-miterlimit:4;stroke-dasharray:none;stroke-dashoffset:0;stroke-opacity:1" id="rect4993" d="M 143.64648 105.49414 C 141.3872 112.19855 137.19855 116.3872 130.49414 118.64648 C 131.02932 119.46174 131.9478 120 133 120 L 142 120 C 143.662 120 145 118.662 145 117 L 145 108 C 145 106.9478 144.46174 106.02932 143.64648 105.49414 z" transform="translate(0,27.362161)"/><use id="use5023" width="100%" height="100%" x="0" y="0" transform="translate(0,50)" xlink:href="#rect4993"/><use id="use5025" width="100%" height="100%" x="0" y="0" transform="translate(50,-25)" xlink:href="#use5023"/><use id="use5027" width="100%" height="100%" x="0" y="0" transform="translate(25,50)" xlink:href="#use5025"/><use id="use5029" width="100%" height="100%" x="0" y="0" transform="translate(-50,25)" xlink:href="#use5023"/></g></svg>