{
  "accessors": [
    {
      "bufferView": 2,
      "componentType": 5126,
      "count": 65533,
      "max": [
        3.5298800468444824,
        2.4657800197601318,
        0.16032999753952026
      ],
      "min": [
        -3.5209300518035889,
        -2.6782500743865967,
        -1.9478100538253784
      ],
      "type": "VEC3"
    },
    {
      "bufferView": 2,
      "byteOffset": 786396,
      "componentType": 5126,
      "count": 65533,
      "max": [
        0.99990928173065186,
        0.9999847412109375,
        0.99999105930328369
      ],
      "min": [
        -0.96941572427749634,
        -0.99700617790222168,
        -1
      ],
      "type": "VEC3"
    },
    {
      "bufferView": 3,
      "componentType": 5126,
      "count": 65533,
      "max": [
        1,
        0.99730509519577026,
        0.99980771541595459,
        1
      ],
      "min": [
        -0.9999997615814209,
        -0.99813169240951538,
        -1,
        -1
      ],
      "type": "VEC4"
    },
    {
      "bufferView": 1,
      "componentType": 5126,
      "count": 65533,
      "max": [
        0.99886000156402588,
        0.97800999879837036
      ],
      "min": [
        0.00049000000581145287,
        0.18761999905109406
      ],
      "type": "VEC2"
    },
    {
      "bufferView": 0,
      "componentType": 5125,
      "count": 67455,
      "max": [
        65532
      ],
      "min": [
        0
      ],
      "type": "SCALAR"
    },
    {
      "bufferView": 2,
      "byteOffset": 1572792,
      "componentType": 5126,
      "count": 65532,
      "max": [
        3.3776299953460693,
        2.4293599128723145,
        2.6745700836181641
      ],
      "min": [
        -0.98220998048782349,
        -0.95099997520446777,
        -1.9478100538253784
      ],
      "type": "VEC3"
    },
    {
      "bufferView": 2,
      "byteOffset": 2359176,
      "componentType": 5126,
      "count": 65532,
      "max": [
        0.99988061189651489,
        0.99997973442077637,
        0.99999964237213135
      ],
      "min": [
        -0.99981391429901123,
        -0.9973112940788269,
        -0.99440795183181763
      ],
      "type": "VEC3"
    },
    {
      "bufferView": 3,
      "byteOffset": 1048528,
      "componentType": 5126,
      "count": 65532,
      "max": [
        1,
        0.969562828540802,
        0.99999374151229858,
        -1
      ],
      "min": [
        -1,
        -0.99853301048278809,
        -0.99999988079071045,
        -1
      ],
      "type": "VEC4"
    },
    {
      "bufferView": 1,
      "byteOffset": 524264,
      "componentType": 5126,
      "count": 65532,
      "max": [
        0.99803000688552856,
        0.77393001317977905
      ],
      "min": [
        0.00049000000581145287,
        0.0016599999507889152
      ],
      "type": "VEC2"
    },
    {
      "bufferView": 0,
      "byteOffset": 269820,
      "componentType": 5125,
      "count": 65532,
      "max": [
        65531
      ],
      "min": [
        0
      ],
      "type": "SCALAR"
    },
    {
      "bufferView": 2,
      "byteOffset": 3145560,
      "componentType": 5126,
      "count": 65532,
      "max": [
        1.705549955368042,
        1.385159969329834,
        2.6745700836181641
      ],
      "min": [
        -0.75959998369216919,
        -0.99107998609542847,
        0.11791999638080597
      ],
      "type": "VEC3"
    },
    {
      "bufferView": 2,
      "byteOffset": 3931944,
      "componentType": 5126,
      "count": 65532,
      "max": [
        0.99999701976776123,
        0.99988514184951782,
        0.99989867210388184
      ],
      "min": [
        -0.99991011619567871,
        -0.99987488985061646,
        -0.98016548156738281
      ],
      "type": "VEC3"
    },
    {
      "bufferView": 3,
      "byteOffset": 2097040,
      "componentType": 5126,
      "count": 65532,
      "max": [
        0.99999994039535522,
        0.99678027629852295,
        0.99999797344207764,
        -1
      ],
      "min": [
        -0.99999940395355225,
        -0.88365530967712402,
        -0.99999982118606567,
        -1
      ],
      "type": "VEC4"
    },
    {
      "bufferView": 1,
      "byteOffset": 1048520,
      "componentType": 5126,
      "count": 65532,
      "max": [
        0.99459999799728394,
        0.79931998252868652
      ],
      "min": [
        0.0043999999761581421,
        0.0016400000313296914
      ],
      "type": "VEC2"
    },
    {
      "bufferView": 0,
      "byteOffset": 531948,
      "componentType": 5125,
      "count": 65532,
      "max": [
        65531
      ],
      "min": [
        0
      ],
      "type": "SCALAR"
    },
    {
      "bufferView": 2,
      "byteOffset": 4718328,
      "componentType": 5126,
      "count": 65533,
      "max": [
        1.705549955368042,
        1.3853100538253784,
        2.6690900325775146
      ],
      "min": [
        -3.5586800575256348,
        -1.8429800271987915,
        -1.9478100538253784
      ],
      "type": "VEC3"
    },
    {
      "bufferView": 2,
      "byteOffset": 5504724,
      "componentType": 5126,
      "count": 65533,
      "max": [
        0.99913477897644043,
        0.99983012676239014,
        0.9999995231628418
      ],
      "min": [
        -0.99685561656951904,
        -0.99891549348831177,
        -0.90574252605438232
      ],
      "type": "VEC3"
    },
    {
      "bufferView": 3,
      "byteOffset": 3145552,
      "componentType": 5126,
      "count": 65533,
      "max": [
        1,
        0.99989759922027588,
        0.99999982118606567,
        -1
      ],
      "min": [
        -0.99999940395355225,
        -0.95349085330963135,
        -0.9999997615814209,
        -1
      ],
      "type": "VEC4"
    },
    {
      "bufferView": 1,
      "byteOffset": 1572776,
      "componentType": 5126,
      "count": 65533,
      "max": [
        0.98170000314712524,
        0.77393001317977905
      ],
      "min": [
        0.0014299999456852674,
        0.0023900000378489494
      ],
      "type": "VEC2"
    },
    {
      "bufferView": 0,
      "byteOffset": 794076,
      "componentType": 5125,
      "count": 65535,
      "max": [
        65532
      ],
      "min": [
        0
      ],
      "type": "SCALAR"
    },
    {
      "bufferView": 2,
      "byteOffset": 6291120,
      "componentType": 5126,
      "count": 65533,
      "max": [
        0.12949000298976898,
        1.1322799921035767,
        1.3222600221633911
      ],
      "min": [
        -3.5778200626373291,
        -2.2967801094055176,
        -1.9478100538253784
      ],
      "type": "VEC3"
    },
    {
      "bufferView": 2,
      "byteOffset": 7077516,
      "componentType": 5126,
      "count": 65533,
      "max": [
        0.99932104349136353,
        0.99978834390640259,
        0.99998581409454346
      ],
      "min": [
        -0.99998760223388672,
        -0.99975782632827759,
        -0.97695571184158325
      ],
      "type": "VEC3"
    },
    {
      "bufferView": 3,
      "byteOffset": 4194080,
      "componentType": 5126,
      "count": 65533,
      "max": [
        1,
        0.93199068307876587,
        1,
        -1
      ],
      "min": [
        -0.99999988079071045,
        -0.9989284873008728,
        -0.99999737739562988,
        -1
      ],
      "type": "VEC4"
    },
    {
      "bufferView": 1,
      "byteOffset": 2097040,
      "componentType": 5126,
      "count": 65533,
      "max": [
        0.99905002117156982,
        0.79176002740859985
      ],
      "min": [
        0.00049000000581145287,
        0.0015600000042468309
      ],
      "type": "VEC2"
    },
    {
      "bufferView": 0,
      "byteOffset": 1056216,
      "componentType": 5125,
      "count": 65535,
      "max": [
        65532
      ],
      "min": [
        0
      ],
      "type": "SCALAR"
    },
    {
      "bufferView": 2,
      "byteOffset": 7863912,
      "componentType": 5126,
      "count": 65533,
      "max": [
        3.3302299976348877,
        0.17419999837875366,
        1.402649998664856
      ],
      "min": [
        -2.920720100402832,
        -2.6791300773620605,
        -1.9478100538253784
      ],
      "type": "VEC3"
    },
    {
      "bufferView": 2,
      "byteOffset": 8650308,
      "componentType": 5126,
      "count": 65533,
      "max": [
        0.99996477365493774,
        0.98128342628479004,
        0.99999725818634033
      ],
      "min": [
        -0.9996064305305481,
        -0.99996095895767212,
        -0.96436232328414917
      ],
      "type": "VEC3"
    },
    {
      "bufferView": 3,
      "byteOffset": 5242608,
      "componentType": 5126,
      "count": 65533,
      "max": [
        0.99999982118606567,
        0.97701847553253174,
        1,
        -1
      ],
      "min": [
        -0.99976742267608643,
        -0.97719269990921021,
        -0.99999988079071045,
        -1
      ],
      "type": "VEC4"
    },
    {
      "bufferView": 1,
      "byteOffset": 2621304,
      "componentType": 5126,
      "count": 65533,
      "max": [
        0.98857998847961426,
        0.82861000299453735
      ],
      "min": [
        0.00049000000581145287,
        0.093520000576972961
      ],
      "type": "VEC2"
    },
    {
      "bufferView": 0,
      "byteOffset": 1318356,
      "componentType": 5125,
      "count": 65535,
      "max": [
        65532
      ],
      "min": [
        0
      ],
      "type": "SCALAR"
    },
    {
      "bufferView": 2,
      "byteOffset": 9436704,
      "componentType": 5126,
      "count": 37716,
      "max": [
        3.5446100234985352,
        2.4375600814819336,
        1.4105099439620972
      ],
      "min": [
        -3.5223100185394287,
        -2.6791300773620605,
        -1.9478100538253784
      ],
      "type": "VEC3"
    },
    {
      "bufferView": 2,
      "byteOffset": 9889296,
      "componentType": 5126,
      "count": 37716,
      "max": [
        0.99977689981460571,
        0.99962097406387329,
        0.99986892938613892
      ],
      "min": [
        -0.99710869789123535,
        -0.99998176097869873,
        -0.89067173004150391
      ],
      "type": "VEC3"
    },
    {
      "bufferView": 3,
      "byteOffset": 6291136,
      "componentType": 5126,
      "count": 37716,
      "max": [
        0.99999982118606567,
        0.89382904767990112,
        0.99999803304672241,
        1
      ],
      "min": [
        -0.9997488260269165,
        -0.73673397302627563,
        -0.99999994039535522,
        -1
      ],
      "type": "VEC4"
    },
    {
      "bufferView": 1,
      "byteOffset": 3145568,
      "componentType": 5126,
      "count": 37716,
      "max": [
        0.99844998121261597,
        0.77294999361038208
      ],
      "min": [
        0.027829999104142189,
        0.09292999655008316
      ],
      "type": "VEC2"
    },
    {
      "bufferView": 0,
      "byteOffset": 1580496,
      "componentType": 5125,
      "count": 38754,
      "max": [
        37715
      ],
      "min": [
        0
      ],
      "type": "SCALAR"
    }
  ],
  "asset": {
    "generator": "Sketchfab (OSG glTF plugin)",
    "version": "2.0"
  },
  "bufferViews": [
    {
      "buffer": 0,
      "byteLength": 1735512,
      "byteOffset": 0,
      "name": "floatBufferViews",
      "target": 34963
    },
    {
      "buffer": 0,
      "byteLength": 3447296,
      "byteOffset": 1735512,
      "byteStride": 8,
      "name": "floatBufferViews",
      "target": 34962
    },
    {
      "buffer": 0,
      "byteLength": 10341888,
      "byteOffset": 5182808,
      "byteStride": 12,
      "name": "floatBufferViews",
      "target": 34962
    },
    {
      "buffer": 0,
      "byteLength": 6894592,
      "byteOffset": 15524696,
      "byteStride": 16,
      "name": "floatBufferViews",
      "target": 34962
    }
  ],
  "buffers": [
    {
      "byteLength": 22419288,
      "uri": "scene.bin"
    }
  ],
  "extensionsRequired": [
    "KHR_materials_pbrSpecularGlossiness"
  ],
  "extensionsUsed": [
    "KHR_materials_pbrSpecularGlossiness"
  ],
  "images": [
    {
      "uri": "textures/esfinge_hatsepsut_Material_u1_v1_diffuse.png"
    }
  ],
  "materials": [
    {
      "doubleSided": true,
      "emissiveFactor": [
        0,
        0,
        0
      ],
      "extensions": {
        "KHR_materials_pbrSpecularGlossiness": {
          "diffuseFactor": [
            1,
            1,
            1,
            1
          ],
          "diffuseTexture": {
            "index": 0,
            "texCoord": 0
          },
          "glossinessFactor": 0,
          "specularFactor": [
            0,
            0,
            0
          ]
        }
      },
      "name": "esfinge_hatsepsut_Material_u1_v1"
    }
  ],
  "meshes": [
    {
      "name": "default_0",
      "primitives": [
        {
          "attributes": {
            "NORMAL": 1,
            "POSITION": 0,
            "TANGENT": 2,
            "TEXCOORD_0": 3
          },
          "indices": 4,
          "material": 0,
          "mode": 4
        }
      ]
    },
    {
      "name": "default_0",
      "primitives": [
        {
          "attributes": {
            "NORMAL": 6,
            "POSITION": 5,
            "TANGENT": 7,
            "TEXCOORD_0": 8
          },
          "indices": 9,
          "material": 0,
          "mode": 4
        }
      ]
    },
    {
      "name": "default_0",
      "primitives": [
        {
          "attributes": {
            "NORMAL": 11,
            "POSITION": 10,
            "TANGENT": 12,
            "TEXCOORD_0": 13
          },
          "indices": 14,
          "material": 0,
          "mode": 4
        }
      ]
    },
    {
      "name": "default_0",
      "primitives": [
        {
          "attributes": {
            "NORMAL": 16,
            "POSITION": 15,
            "TANGENT": 17,
            "TEXCOORD_0": 18
          },
          "indices": 19,
          "material": 0,
          "mode": 4
        }
      ]
    },
    {
      "name": "default_0",
      "primitives": [
        {
          "attributes": {
            "NORMAL": 21,
            "POSITION": 20,
            "TANGENT": 22,
            "TEXCOORD_0": 23
          },
          "indices": 24,
          "material": 0,
          "mode": 4
        }
      ]
    },
    {
      "name": "default_0",
      "primitives": [
        {
          "attributes": {
            "NORMAL": 26,
            "POSITION": 25,
            "TANGENT": 27,
            "TEXCOORD_0": 28
          },
          "indices": 29,
          "material": 0,
          "mode": 4
        }
      ]
    },
    {
      "name": "default_0",
      "primitives": [
        {
          "attributes": {
            "NORMAL": 31,
            "POSITION": 30,
            "TANGENT": 32,
            "TEXCOORD_0": 33
          },
          "indices": 34,
          "material": 0,
          "mode": 4
        }
      ]
    }
  ],
  "nodes": [
    {
      "children": [
        1
      ],
      "name": "RootNode (gltf orientation matrix)",
      "rotation": [
        -0.70710678118654746,
        -0,
        -0,
        0.70710678118654757
      ]
    },
    {
      "children": [
        2
      ],
      "name": "RootNode (model correction matrix)"
    },
    {
      "children": [
        3
      ],
      "name": "Root"
    },
    {
      "children": [
        4
      ],
      "matrix": [
        0.93078000000000005,
        -0.36559000000000003,
        0,
        0,
        0.36559000000000003,
        0.93078000000000005,
        0,
        0,
        -0,
        -0,
        1,
        0,
        0,
        0,
        0,
        1
      ],
      "name": "default"
    },
    {
      "children": [
        5,
        6,
        7,
        8,
        9,
        10,
        11
      ],
      "name": "Geode"
    },
    {
      "mesh": 0,
      "name": "default_0"
    },
    {
      "mesh": 1,
      "name": "default_0"
    },
    {
      "mesh": 2,
      "name": "default_0"
    },
    {
      "mesh": 3,
      "name": "default_0"
    },
    {
      "mesh": 4,
      "name": "default_0"
    },
    {
      "mesh": 5,
      "name": "default_0"
    },
    {
      "mesh": 6,
      "name": "default_0"
    }
  ],
  "samplers": [
    {
      "magFilter": 9729,
      "minFilter": 9987,
      "wrapS": 10497,
      "wrapT": 10497
    }
  ],
  "scene": 0,
  "scenes": [
    {
      "name": "OSG_Scene",
      "nodes": [
        0
      ]
    }
  ],
  "textures": [
    {
      "sampler": 0,
      "source": 0
    }
  ]
}

